<?xml version="1.0" encoding="UTF-8" standalone="no"?>
<!-- Created with Inkscape (http://www.inkscape.org/) -->

<svg
   xmlns:dc="http://purl.org/dc/elements/1.1/"
   xmlns:cc="http://creativecommons.org/ns#"
   xmlns:rdf="http://www.w3.org/1999/02/22-rdf-syntax-ns#"
   xmlns:svg="http://www.w3.org/2000/svg"
   xmlns="http://www.w3.org/2000/svg"
   xmlns:sodipodi="http://sodipodi.sourceforge.net/DTD/sodipodi-0.dtd"
   xmlns:inkscape="http://www.inkscape.org/namespaces/inkscape"
   width="122.66281"
   height="128.00003"
   viewBox="0 0 47.537876 124.72444"
   id="svg4418"
   version="1.1"
   inkscape:version="0.91 r13725"
   sodipodi:docname="Minimal Dice.svg">
  <defs
     id="defs4420" />
  <sodipodi:namedview
     id="base"
     pagecolor="#ffffff"
     bordercolor="#666666"
     borderopacity="1.0"
     inkscape:pageopacity="0.0"
     inkscape:pageshadow="2"
     inkscape:zoom="0.35"
     inkscape:cx="169.83728"
     inkscape:cy="-258.8583"
     inkscape:document-units="px"
     inkscape:current-layer="layer1"
     showgrid="false"
     fit-margin-top="0"
     fit-margin-left="0"
     fit-margin-right="0"
     fit-margin-bottom="0"
     inkscape:window-width="960"
     inkscape:window-height="1061"
     inkscape:window-x="0"
     inkscape:window-y="19"
     inkscape:window-maximized="0" />
  <metadata
     id="metadata4423">
    <rdf:RDF>
      <cc:Work
         rdf:about="">
        <dc:format>image/svg+xml</dc:format>
        <dc:type
           rdf:resource="http://purl.org/dc/dcmitype/StillImage" />
        <dc:title></dc:title>
      </cc:Work>
    </rdf:RDF>
  </metadata>
  <g
     inkscape:label="Layer 1"
     inkscape:groupmode="layer"
     id="layer1"
     transform="translate(249.70793,-168.71087)">
    <path
       style="color:#000000;font-style:normal;font-variant:normal;font-weight:normal;font-stretch:normal;font-size:medium;line-height:normal;font-family:sans-serif;text-indent:0;text-align:start;text-decoration:none;text-decoration-line:none;text-decoration-style:solid;text-decoration-color:#000000;letter-spacing:normal;word-spacing:normal;text-transform:none;direction:ltr;block-progression:tb;writing-mode:lr-tb;baseline-shift:baseline;text-anchor:start;white-space:normal;clip-rule:nonzero;display:inline;overflow:visible;visibility:visible;opacity:1;isolation:auto;mix-blend-mode:normal;color-interpolation:sRGB;color-interpolation-filters:linearRGB;solid-color:#000000;solid-opacity:1;fill:#393939;fill-opacity:1;fill-rule:evenodd;stroke:none;stroke-width:42.69927216;stroke-linecap:round;stroke-linejoin:round;stroke-miterlimit:4;stroke-dasharray:none;stroke-dashoffset:0;stroke-opacity:1;color-rendering:auto;image-rendering:auto;shape-rendering:auto;text-rendering:auto;enable-background:accumulate"
       d="m -223.18035,168.72908 c -0.79227,0.0527 -1.57544,0.1891 -2.33239,0.42631 l -53.37004,16.27679 c -4.91366,1.50132 -7.78373,6.60139 -6.52074,11.58695 l 6.21975,56.02852 c 0.28795,2.54879 1.57855,4.87763 3.5865,6.47067 l 39.47572,31.39995 c 0.17066,0.1476 0.34659,0.28992 0.52647,0.42632 0.25039,0.19635 0.51,0.3815 0.77685,0.55216 0.26818,0.17198 0.54426,0.33143 0.82825,0.47639 0.26949,0.13903 0.54689,0.26356 0.82825,0.37624 l 0.2003,0.0771 c 0.19768,0.0771 0.3993,0.13969 0.60224,0.20031 0.18252,0.0527 0.3657,0.10279 0.55217,0.15023 l 0.12849,0.0263 0.0527,0 c 0.21546,0.0527 0.4329,0.0896 0.65232,0.12849 l 0.62662,0.0771 0.15023,0 c 0.19108,0.0132 0.38414,0.0264 0.57654,0.0264 0.26818,-0.006 0.53569,-0.0264 0.80255,-0.0527 0.31957,-0.0264 0.63848,-0.0659 0.95278,-0.12849 0.32089,-0.0659 0.63914,-0.13508 0.95278,-0.226 0.90402,-0.25698 1.76627,-0.64573 2.55821,-1.15309 l 49.63304,-27.86374 c 2.84582,-1.60154 4.68694,-4.53789 4.8906,-7.79994 l 3.63651,-59.99106 c 0.14628,-2.49555 -0.68058,-4.95044 -2.30723,-6.84677 -0.0659,-0.0771 -0.13244,-0.15155 -0.20031,-0.22601 -0.36964,-0.40061 -0.77177,-0.77046 -1.20323,-1.10307 -0.0771,-0.0659 -0.15023,-0.11531 -0.226,-0.17593 l -0.15023,-0.10279 c -0.21085,-0.15946 -0.42895,-0.30969 -0.65232,-0.45201 -0.18845,-0.10279 -0.38151,-0.2069 -0.57654,-0.30046 -0.0896,-0.0395 -0.18384,-0.0896 -0.27609,-0.12849 -0.19767,-0.10279 -0.39798,-0.19108 -0.60224,-0.27608 l -0.0771,-0.0264 c -0.13244,-0.0395 -0.26686,-0.0896 -0.40061,-0.12849 l -46.5232,-17.15458 c -1.21094,-0.4441 -2.49884,-0.64046 -3.78707,-0.57654 z m -3.08473,14.39593 c 4.17793,-0.58774 8.27837,0.39798 9.15413,2.20701 0.8745,1.8062 -1.81608,3.7507 -5.99415,4.33878 -4.17793,0.5884 -8.25466,-0.40062 -9.12909,-2.20695 -0.87575,-1.80863 1.79104,-3.7507 5.96911,-4.33884 z m -26.86062,7.57408 c 4.42331,-0.6651 8.75378,0.46123 9.68086,2.50799 0.92583,2.04479 -1.9219,4.25061 -6.34521,4.91572 -4.42344,0.66516 -8.75503,-0.46322 -9.68086,-2.50807 -0.92715,-2.04749 1.9219,-4.25048 6.34521,-4.91564 z m 53.97201,1.07869 c 4.66869,0.6398 7.648,2.74962 6.67124,4.71488 -0.97848,1.96789 -5.53884,3.04705 -10.20753,2.40771 -4.66882,-0.6398 -7.67449,-2.77215 -6.69641,-4.74011 0.97723,-1.96519 5.56401,-3.02188 10.2327,-2.38248 z m -30.17116,0.30046 c 5.1595,-0.63979 10.20469,0.43884 11.28589,2.40765 1.07995,1.96532 -2.21393,4.07561 -7.3735,4.71508 -5.15951,0.63979 -10.23111,-0.44279 -11.31093,-2.40772 -1.0812,-1.96796 2.2391,-4.07554 7.39854,-4.71501 z m 1.85594,9.78115 c 3.76559,0.13508 6.91273,1.18907 7.74961,2.78395 1.11329,2.12425 -2.30124,4.40032 -7.62428,5.09111 -5.32312,0.69087 -10.54884,-0.4586 -11.66213,-2.58318 -1.11586,-2.12708 2.30123,-4.42548 7.62428,-5.11634 1.33073,-0.17198 2.6573,-0.22074 3.91252,-0.17593 z m -40.7799,2.73374 c 1.88079,0.11531 4.14539,2.13295 5.74317,5.34203 2.1311,4.27887 2.24424,9.08455 0.25039,10.70908 -1.99076,1.62243 -5.31824,-0.53701 -7.44862,-4.81536 -2.1311,-4.27868 -2.24167,-9.06155 -0.25038,-10.68398 0.49813,-0.40589 1.07863,-0.5917 1.70558,-0.55216 z m 80.5064,4.21345 c 0.86166,-0.11531 1.70427,-0.0395 2.45779,0.32616 3.01002,1.45052 3.58788,6.48542 1.30424,11.23582 -2.28377,4.75019 -6.57042,7.41949 -9.58057,5.96897 -3.01417,-1.45256 -3.61292,-6.46039 -1.32922,-11.21078 1.71277,-3.56271 4.56175,-5.95777 7.14776,-6.32004 z m -59.46439,7.74961 c 2.04248,0.12848 4.53473,2.25794 6.26996,5.64307 2.31342,4.51332 2.44066,9.54724 0.27608,11.26086 -2.16194,1.71144 -5.81222,-0.55216 -8.1259,-5.06614 -2.31303,-4.51345 -2.4377,-9.57458 -0.27609,-11.28603 0.54031,-0.42894 1.17497,-0.59433 1.85595,-0.55216 z m 32.22761,3.61153 c 0.86159,-0.11531 1.70433,-0.0395 2.45785,0.32616 3.01002,1.45052 3.58775,6.48543 1.30411,11.23575 -2.28377,4.75026 -6.57029,7.41963 -9.58044,5.96911 -3.01417,-1.45256 -3.58788,-6.46052 -1.30418,-11.21072 1.71277,-3.56271 4.53658,-5.95797 7.12266,-6.32017 z m -50.76168,2.63339 c 1.71902,0.12849 3.80644,2.17459 5.26684,5.44238 1.94753,4.35702 2.04775,9.23043 0.22601,10.88475 -1.81958,1.65207 -4.8744,-0.53306 -6.82174,-4.89061 -1.94773,-4.35702 -2.04531,-9.23261 -0.226,-10.88475 0.45596,-0.4138 0.9823,-0.59302 1.55489,-0.55217 z m 19.81314,13.46793 c 2.04248,0.12849 4.50956,2.25781 6.24492,5.64295 2.31343,4.51331 2.44066,9.54736 0.27608,11.26098 -2.16194,1.71145 -5.78718,-0.55216 -8.1008,-5.06627 -2.31303,-4.51344 -2.43776,-9.57444 -0.27608,-11.28589 0.5403,-0.42895 1.1749,-0.59433 1.85588,-0.55216 z m 57.58335,3.73686 c 0.86165,-0.11531 1.70439,-0.0132 2.45792,0.35186 3.01002,1.45052 3.58775,6.46038 1.30411,11.21071 -2.28378,4.75026 -6.5703,7.44453 -9.58045,5.99401 -3.01417,-1.45256 -3.61305,-6.48555 -1.32934,-11.23575 1.71289,-3.56271 4.56174,-5.95784 7.14776,-6.32017 z m -75.16438,1.27894 c 1.61129,0.10279 3.57187,1.86642 4.94068,4.665 1.8257,3.73119 1.9084,7.91308 0.20031,9.32966 -1.70551,1.41481 -4.57018,-0.45728 -6.39542,-4.18834 -1.82464,-3.73113 -1.90608,-7.91512 -0.2003,-9.3298 0.42763,-0.35449 0.91687,-0.51131 1.4546,-0.47639 z m 48.83056,11.13553 c 0.86158,-0.11531 1.70433,-0.0132 2.45785,0.35186 3.01002,1.45045 3.61279,6.48542 1.32915,11.23575 -2.28377,4.75026 -6.59533,7.41949 -9.60548,5.96897 -3.01417,-1.45256 -3.58802,-6.48555 -1.30431,-11.23575 1.7129,-3.56284 4.53671,-5.95797 7.12279,-6.32017 z m -30.04571,2.63339 c 2.04248,0.12849 4.53467,2.25794 6.26996,5.64295 2.31343,4.51331 2.41562,9.54736 0.25039,11.26092 -2.16187,1.71144 -5.78712,-0.55217 -8.1008,-5.06608 -2.31303,-4.51358 -2.4377,-9.54954 -0.27609,-11.26098 0.54097,-0.42895 1.17497,-0.61872 1.85588,-0.57655 z"
       id="path2434"
       inkscape:connector-curvature="0" />
  </g>
</svg>
